PathFileType	4	(X/Y/Z)	C:/Users/beibeiliu/ov580/test_trc/User1\sequence.23_training_dense_right.trc
DataRate	CameraRate	NumFrames	NumMarkers	Units	OrigDataRate	OrigDataStartFrame	OrigNumFrames
120	120	25	19	mm	120	211	240
Frame#	Time	ThumbCMC			ThumbMCP			ThumbIP			ThumbTip			IndexMCP			IndexPIP			IndexTip			MiddleMCP			MiddlePIP			MiddleTip			RingMCP			RingPIP			RingTip			PinkyMCP			PinkyPIP			PinkyTip			BackHand1			BackHand2			BackHand3	
		X0	Y0	Z0	X1	Y1	Z1	X2	Y2	Z2	X3	Y3	Z3	X4	Y4	Z4	X5	Y5	Z5	X6	Y6	Z6	X7	Y7	Z7	X8	Y8	Z8	X9	Y9	Z9	X10	Y10	Z10	X11	Y11	Z11	X12	Y12	Z12	X13	Y13	Z13	X14	Y14	Z14	X15	Y15	Z15	X16	Y16	Z16	X17	Y17	Z17	X18	Y18	Z18	
210	1.75	98.2258	-10.8706	79.6673	96.4156	-29.0401	41.6698	101.414	-30.2676	12.6519	117.913	-29.2457	-6.27158	74.9095	10.8217	2.22493	86.189	-14.2274	-12.1663	94.8602	-27.1875	23.6151	101.751	20.3523	-11.5949	105.608	-12.0161	-14.674	112.245	-11.7088	22.7959	125.162	25.438	-6.5128	127.836	-9.23118	-13.9984	130.407	-18.0979	17.7046	149.786	36.9601	10.736	149.452	42.0903	-11.2178	147.281	54.3298	-29.7643	130.933	40.112	54.2037	142.013	38.579	88.6955	104.705	30.9099	76.8495	
211	1.75833	93.9638	-13.4306	79.2864	92.602	-35.2849	45.2637	97.6747	-34.5085	13.0594	120.418	-27.0877	-8.51059	73.1916	10.2356	1.6727	84.0076	-15.352	-11.6573	94.6669	-26.1175	23.3624	95.8395	25.0403	-7.17675	104.579	-5.45137	-18.7074	112.514	-13.229	18.9934	120.128	25.2656	-8.76437	130.259	-5.88042	-15.534	134.427	-13.6319	16.9486	146.277	41.4783	7.65875	144.674	44.6863	-7.61426	143.404	59.9216	-30.109	127.325	43.5483	52.8774	142.753	39.1478	86.9661	103.33	32.7049	75.2897	
212	1.76667	94.3892	-14.3573	79.2214	94.5019	-31.3868	46.2962	97.0997	-31.4264	13.4432	122.037	-18.8654	-5.53622	71.7077	10.9407	3.24133	82.9541	-12.2312	-12.7335	94.9622	-26.4096	20.8738	93.68	26.1475	-9.77087	100.604	-2.47528	-22.2311	116.301	-17.5128	11.0993	121.465	28.5005	-10.5905	127.498	-4.0311	-15.6119	134.539	-12.2813	16.0756	143.138	44.7986	6.27345	141.13	50.3475	-11.2672	137.991	62.7977	-29.9258	125.937	45.1168	55.5035	136.83	39.549	85.7191	100.832	29.351	77.4536	
213	1.775	99.5949	-13.8854	82.1108	88.4608	-22.219	43.4226	94.294	-12.2594	14.2566	117.758	2.19489	-1.78412	71.9884	12.7866	6.69492	82.5967	-10.3084	-14.4694	93.5703	-27.0729	18.6573	92.9374	24.3491	-5.54595	103.664	-5.94432	-23.9099	124.258	-25.5577	7.57955	114.992	27.4378	-8.56893	126.839	-1.18505	-17.1045	132.684	-13.469	16.9518	138.801	45.9361	8.62771	138.699	52.11	-10.6366	129.604	63.3395	-27.0193	125.724	45.918	58.1219	138.6	41.1399	89.0881	100.821	27.3928	81.946	
214	1.78333	100.459	-15.7565	83.0887	90.9947	-21.0438	47.2242	92.0515	-7.58467	14.8912	112.672	3.77281	-2.66021	71.1243	12.6361	5.24362	83.9114	-8.83571	-14.9244	94.6673	-27.8458	14.3978	91.1783	21.9472	-5.95461	105.16	-3.70729	-23.7855	120.964	-29.1189	4.7023	113.816	28.2705	-8.56704	126.233	-2.86017	-17.3501	134.462	-13.8514	12.8753	138.412	48.0428	7.33617	133.027	53.1078	-11.5933	125.731	65.8401	-27.4086	124.961	47.918	53.587	138.269	44.674	86.1663	103.343	27.9549	80.1068	
215	1.79167	99.9619	-13.833	81.4917	88.4484	-18.3508	44.7865	91.0969	-7.71075	17.833	110.347	5.472	-3.04176	72.4252	13.7334	3.16179	83.0482	-11.1051	-15.6397	96.66	-28.6673	12.1419	89.5521	20.8911	-7.49878	102.674	-4.78203	-23.3958	122.321	-27.257	6.08415	116.744	30.3724	-8.72571	123.586	-3.22994	-16.7215	130.93	-13.8684	11.1104	134.575	48.5649	6.88494	134.286	54.3011	-9.10542	125.089	66.7597	-23.32	123.524	46.2321	56.1183	136.476	42.5626	86.7684	98.1693	28.5314	79.4514	
216	1.8	97.5714	-15.4094	82.9428	88.02	-19.9482	47.0887	90.9429	-6.25078	18.0664	109.247	5.84263	-2.276	69.3959	11.8672	6.08984	81.6563	-11.0931	-14.2547	98.9002	-30.2765	11.8888	88.6047	22.6911	-3.2378	103.488	-8.29012	-20.8253	116.177	-29.5556	6.69204	111.935	28.7828	-9.00575	122.683	-0.166254	-17.9897	128.851	-12.8486	15.283	134.058	47.2037	7.66004	128.318	52.6231	-11.1377	124.062	68.4476	-28.597	120.451	46.4296	54.4938	136.715	44.0691	84.4034	102.583	27.3631	80.9614	
217	1.80833	98.5008	-15.572	84.3383	84.1584	-22.8737	48.7053	86.0747	-8.57713	17.2994	106.662	1.33297	1.3954	65.6744	9.4434	7.24579	78.0835	-15.3351	-12.9375	96.8299	-33.3867	13.4079	89.2309	20.4882	-6.94085	101.628	-8.53088	-20.675	118.152	-28.8993	10.558	111.068	27.3739	-8.74825	123.412	-2.75312	-16.3036	127.626	-14.5136	15.0556	133.886	46.5013	8.14139	129.982	52.0859	-9.34765	119.523	65.3297	-24.6663	123.601	43.7143	55.4339	135.571	43.3193	83.9985	100.143	27.092	79.6399	
218	1.81667	97.24	-15.3171	85.5568	82.6502	-21.8324	48.853	83.5949	-9.30818	18.0266	103.648	1.16633	-1.2359	64.5518	7.63861	8.31498	76.484	-17.5331	-10.8768	97.4712	-34.1038	15.4606	84.1387	19.2032	-4.37751	99.4548	-10.7502	-20.2047	116.559	-30.2596	10.7804	109.185	25.4004	-8.54951	121.002	-2.25094	-17.7253	127.193	-14.0202	14.8033	129.143	44.6343	10.204	130.182	51.5777	-6.7541	116.271	64.3091	-27.8579	120.462	44.5651	58.2386	132.51	41.1271	87.6131	99.4335	28.4198	79.5211	
219	1.825	97.3897	-16.3869	86.0373	78.9175	-24.5207	50.2673	80.5416	-9.6913	20.1194	101.108	0.317626	0.930354	65.5872	8.66203	9.9027	77.434	-17.5821	-9.64287	94.4727	-34.723	13.7387	82.079	19.1261	-4.97139	94.5003	-9.36558	-19.3505	112.246	-30.4788	8.83491	108.231	26.4526	-8.16332	115.627	-3.95798	-15.3107	123.457	-14.7142	16.843	125.393	45.2052	8.26016	123.638	49.7166	-5.9278	115.474	63.3191	-24.8439	119.281	43.0419	56.5877	131.221	38.7896	87.1442	97.4936	23.8918	83.2686	
220	1.83333	92.4227	-18.9213	88.1749	78.2043	-22.4407	50.9356	78.3724	-12.1653	21.234	100.162	2.99964	2.65273	58.5798	4.78183	9.5608	72.2188	-20.4884	-8.60905	89.4216	-37.7612	16.5268	80.0186	19.1295	-4.32278	90.7822	-13.6648	-17.0401	112.124	-28.2242	10.2079	102.356	28.1931	-2.43142	114.114	-3.00815	-15.0777	120.754	-14.0335	16.4236	121.971	43.5519	10.151	120.98	53.1457	-8.99968	108.614	63.4882	-21.7891	117.057	43.157	56.9853	129.925	36.3155	90.0227	92.501	24.2197	79.6009	
221	1.84167	91.1502	-19.2655	86.7609	76.3061	-26.8491	51.541	77.7975	-13.1461	24.6621	97.9954	3.62434	3.99083	58.3972	6.50907	9.85701	70.6049	-15.4433	-8.80801	86.4722	-37.372	15.5151	77.6031	19.8347	-0.14268	86.8425	-13.8519	-15.4646	108.467	-28.9452	11.3118	100.915	28.3815	-1.03295	111.889	-3.46359	-13.7006	117.876	-15.163	15.6202	123.622	46.1975	11.6277	116.085	49.6081	-4.30065	109.809	64.0301	-20.5458	113.083	42.9179	61.6059	126.181	35.6727	91.8522	91.4018	24.0911	84.7077	
222	1.85	90.1423	-18.5144	85.2247	77.9336	-25.3531	52.9669	75.5287	-10.0578	21.0274	95.6213	1.81477	2.51679	57.3006	6.61639	10.1355	71.2719	-16.022	-8.82824	85.198	-34.8005	14.1031	75.29	19.9046	1.29881	86.3494	-12.3274	-16.332	105.824	-30.1515	9.24703	98.3373	26.664	-4.21806	109.893	-1.61728	-14.3122	119.53	-14.2607	17.5138	120.784	46.3792	8.45576	115.136	51.0566	-7.32816	105.233	62.0512	-18.9043	113.581	44.1517	60.1	124.508	37.3545	88.726	87.7511	22.4269	82.4868	
223	1.85833	92.7185	-16.2621	84.278	76.9032	-21.6101	48.701	79.3463	-11.4507	24.2963	99.7618	6.45867	0.65851	57.0453	8.39505	11.1455	65.6161	-15.1864	-10.2916	85.7304	-32.7305	16.7261	76.0193	18.4067	-2.71118	89.9983	-11.591	-17.1636	106.962	-29.0484	8.13604	101.601	27.073	-7.13138	109.529	-4.11182	-14.2586	120.781	-15.6252	16.7647	123.202	43.2497	13.4225	116.771	49.7805	-8.38977	111.218	63.6434	-25.1332	111.751	43.2246	60.3211	124.279	39.3635	89.4762	89.8342	24.7633	84.9725	
224	1.86667	90.8223	-16.59	84.8924	80.0148	-19.4531	48.0464	81.7157	-9.07998	21.5828	100.187	3.1915	-0.399606	59.7893	11.1311	8.372	68.7364	-12.2839	-10.8586	83.9547	-32.0154	16.5183	77.8119	20.4515	-3.13116	92.9504	-10.3637	-19.3621	107.8	-30.7109	7.74978	105.638	29.4127	-3.45137	113.343	-4.37597	-16.1345	119.527	-16.5407	15.5842	125.595	43.6294	8.8748	120.337	48.3288	-8.41561	115.454	61.4838	-22.7427	115.842	44.0203	55.0446	128.946	37.4789	86.5943	93.3115	27.1503	82.5148	
225	1.875	90.4908	-14.2678	82.6076	80.1858	-21.5909	47.2403	82.9819	-7.50999	18.7465	103.225	3.07311	-1.24972	64.5242	15.7793	6.15205	68.9552	-12.4946	-12.6628	86.3791	-28.0069	14.4001	83.3868	21.1134	-5.84482	90.4726	-10.4274	-19.8036	108.151	-30.8801	5.06768	109.456	26.8472	-9.2945	112.302	-3.74827	-16.5034	125.717	-17.2165	12.0857	127.728	42.6986	6.8488	131.616	48.6622	-9.35706	122.242	64.1378	-27.1907	117.069	41.2272	53.7259	133.839	38.4438	85.1463	94.9454	27.8393	82.382	
226	1.88333	94.5555	-12.5184	83.443	79.5638	-17.0221	43.1385	84.7348	-7.82063	17.3809	107.61	4.1793	-4.16083	66.692	18.078	7.39795	76.5349	-7.39284	-14.1737	87.4	-24.9205	13.5841	91.3237	22.6588	-9.55033	94.2352	-10.3068	-20.7857	110.784	-30.4075	6.81293	113.287	25.5455	-10.1292	118.074	-3.1823	-18.0793	123.889	-18.6967	10.9025	136.863	40.4737	9.62349	134.698	45.8255	-9.10261	131.009	61.645	-23.2656	124.812	45.1749	52.3792	134.768	35.9582	87.5422	97.6998	28.3601	78.8398	
227	1.89167	94.0653	-9.45819	82.3604	79.467	-16.6415	43.0408	89.058	-3.36989	16.1187	108.891	2.52347	-0.190718	73.4555	21.3275	0.461975	78.8117	-8.26657	-13.6059	86.0173	-20.6758	16.7255	95.7242	24.3913	-10.5049	97.49	-8.6469	-21.6866	111.04	-30.3004	6.28023	117.615	25.3825	-10.4259	119.254	-5.69571	-17.9391	127.679	-19.303	14.7954	140.748	39.7934	7.11114	140.548	46.3128	-11.8733	140.149	60.8243	-26.3582	128.222	43.438	52.6502	137.641	36.5661	87.9686	103.456	31.8505	79.3877	
228	1.9	86.7957	-6.89473	78.6116	77.9336	-14.2088	42.5264	90.3208	-0.559004	15.3827	114.1	5.01894	-1.87263	76.781	23.5084	1.51836	80.4719	-3.02105	-16.2423	82.4924	-18.6097	19.6306	99.9885	26.9453	-8.14889	100.621	-6.01043	-22.6071	108.231	-31.3236	6.95636	120.354	26.7272	-6.7346	124.657	-7.58513	-16.9093	126.336	-20.1797	15.5973	148.432	38.1232	8.87171	146.134	43.2231	-6.80808	141.524	60.616	-24.7022	129.991	42.7626	55.5266	137.476	36.4558	87.1565	98.6536	33.6514	75.8718	
229	1.90833	87.1513	-5.68143	79.4868	78.9662	-12.443	42.9109	88.4753	-0.739946	13.56	112.795	3.08511	-2.53769	77.1927	26.1076	-0.788887	81.6743	-1.95605	-16.8106	85.3273	-13.412	21.2116	97.0185	27.3926	-7.88296	102.369	-8.28309	-22.9789	108.009	-29.3572	8.15583	121.436	25.0723	-11.3512	123.94	-8.44227	-16.6618	127.343	-20.5688	11.6604	149.463	38.8357	5.31483	146.32	43.8722	-11.6866	148.06	59.8268	-27.1313	132.769	43.8032	50.5016	138.459	36.433	88.7259	99.9315	35.5843	76.2896	
230	1.91667	89.123	-0.332931	76.4889	79.5603	-7.25196	40.1314	89.2261	-0.21773	13.5258	116.138	5.9438	-0.545942	76.4999	27.3679	-2.0682	82.449	0.198445	-17.1072	81.5081	-12.715	16.4017	101.778	28.67	-10.3828	99.8202	-7.60505	-23.8292	105.2	-29.0114	4.12164	122.101	25.3812	-9.11618	124.162	-9.47109	-15.9602	123.224	-19.3438	16.1299	148.945	37.2219	4.76276	151.917	42.5631	-11.9883	151.707	54.8426	-25.0868	135.46	43.0575	53.3654	142.292	37.665	87.2665	100.832	35.3204	75.4445	
231	1.925	83.006	-1.06235	77.6267	74.0981	-6.18368	38.5293	83.4494	0.111138	11.2166	112.492	5.56989	-1.46522	73.1485	27.5968	-2.70386	76.349	-4.15774	-15.4136	80.1131	-10.4199	19.6836	101.25	27.3621	-11.7629	98.8383	-8.01882	-23.409	105.774	-28.7403	4.71269	120.995	24.0445	-9.84439	120.575	-7.37468	-17.8935	123.789	-20.1946	12.8563	151.428	36.0548	6.84917	152.494	40.7656	-12.9303	149.775	55.7848	-26.1326	131.897	43.2351	51.9153	139.147	39.3779	83.3836	102.17	38.4219	72.0949	
232	1.93333	83.5183	-1.08176	80.0844	72.3574	-7.48094	42.5536	81.8343	2.62805	11.6431	108.22	4.32851	-4.15811	71.5238	26.3005	-4.69516	74.501	-3.86608	-13.7557	75.9624	-11.8631	19.5118	95.8397	25.3803	-13.8576	94.6024	-5.76096	-24.0794	101.625	-30.132	10.6662	120.28	23.1798	-12.4657	114.781	-10.8004	-15.2694	115.757	-20.2629	15.7672	143.282	36.4558	5.2733	144.744	41.518	-13.5159	143.952	52.6243	-26.4857	129.503	43.7713	48.4467	138.449	37.3401	86.479	94.9975	36.8274	75.6784	
233	1.94167	78.6159	-2.52684	81.1	65.0871	-8.86681	43.1676	75.3637	1.97294	12.8808	98.3505	2.89931	-5.30985	63.1947	25.4421	1.36664	66.868	-6.24824	-12.4241	70.1227	-13.5641	19.0223	83.4036	27.184	-9.71629	85.0735	-5.98488	-22.3667	92.7326	-30.8695	9.89023	110.54	25.1237	-10.0979	111.398	-7.02782	-17.4364	113.138	-19.9198	15.9411	136.504	36.1506	7.91859	137.22	43.5077	-14.6616	136.803	55.3135	-28.2752	123.28	43.5719	53.6944	129.122	39.6138	83.5701	93.3884	36.6514	75.6389	
234	1.95	75.2035	-6.14523	83.0709	62.7395	-9.55164	45.043	69.2655	-0.210059	14.7807	92.9235	5.35255	-0.116879	57.2881	23.2029	0.064591	61.9187	-6.69737	-10.2909	61.1038	-15.6478	24.0034	77.8603	27.2641	-6.51554	77.6204	-4.90662	-21.4162	88.7237	-29.949	10.4518	100.587	26.6071	-7.96159	103.21	-5.64658	-17.8073	104.68	-19.2788	17.8255	129.213	38.8024	6.87646	123.797	43.7061	-9.87987	120.631	56.5279	-27.7705	114.171	44.6921	53.3489	123.153	38.885	84.9408	86.7216	34.4448	76.4396	
